<svg t="1678778626346" class="icon" viewBox="0 0 1024 1024" version="1.1" xmlns="http://www.w3.org/2000/svg" p-id="3390" width="36" height="36"><path d="M798.242928 662.788686c-27.261231 0-52.818636 6.815308-76.672213 17.038269l-13.630615-22.14975-17.03827-35.780366 59.633944-107.341099s69.856905 1.703827 78.37604-10.222961l-1.703827-15.334443s-61.33777-10.222962-73.264559-18.742096c0 0-66.449251-35.780366-71.560732-10.222962 0 0-5.111481 8.519135 20.445923 10.222962 0 0 35.780366 8.519135 35.780366 30.668885l-1.703827 10.222962-69.856905 117.564059c-22.14975-39.18802-52.818636-71.560732-52.818636-71.560732-20.445923-18.742097-8.519135-28.965058-8.519134-28.965058 23.853577-37.484193 44.299501-139.71381 44.2995-139.71381 44.299501-68.153078 8.519135-97.118136 1.703827-110.748752-6.815308-15.334443 3.407654-22.14975-23.853577-25.557405-28.965058-3.407654-10.222962-10.222962-32.372712-32.372712-22.14975-22.14975-15.334443-18.742097-49.410982-42.595674s-25.557404-46.003328-86.895175-73.264559c-59.633943-28.965058-100.52579-1.703827-100.52579-1.703827-44.299501-1.703827-32.372712-39.18802-32.372712-39.18802 15.334443-23.853577 0-35.780366 0-35.780366-15.334443-52.818636-85.191348-11.926789-85.191348-11.926788-59.633943 25.557404-64.745424 97.118136-64.745424 97.118136-3.407654 23.853577 40.891847 0 40.891847 0-5.111481 10.222962 10.222962 17.03827 10.222962 17.03827-11.926789 30.668885 13.630616 20.445923 13.630615 20.445923 3.407654-3.407654 11.926789 5.111481 11.926789 5.111481-1.703827 6.815308 10.222962 10.222962 10.222962 10.222962-3.407654 6.815308 17.03827 8.519135 17.038269 8.519134 15.334443 8.519135 22.14975-8.519135 22.149751-8.519134 10.222962-5.111481 3.407654 8.519135 27.261231 5.111481h3.407654c20.445923 1.703827 15.334443 39.18802 15.334442 39.188019 8.519135 37.484193 71.560732 73.264559 80.079867 80.079867 8.519135 6.815308 8.519135 22.14975 0 37.484193-8.519135 15.334443-11.926789 8.519135-30.668885 17.03827-17.03827 8.519135-1.703827 10.222962-20.445923 35.780366-18.742097 25.557404-8.519135 32.372712-8.519135 32.372712-6.815308 10.222962-6.815308 23.853577-6.815308 23.853577 5.111481 37.484193 22.14975-10.222962 22.14975-10.222961 6.815308 11.926789 20.445923 13.630616 30.668886 10.222961 1.703827 3.407654 1.703827 8.519135-3.407654 17.03827L367.174709 528.186356s-10.222962-6.815308-18.742097 5.111481l-25.557404 39.18802s-5.111481-15.334443-18.742097 5.111481l-5.11148 10.222962c-25.557404-13.630616-54.522463-20.445923-86.895175-20.445924C104.785358 567.374376 19.59401 654.269551 19.59401 759.906822c0 107.341098 86.895175 192.532446 192.532446 192.532446 107.341098 0 192.532446-86.895175 192.532446-192.532446 0-61.33777-28.965058-117.56406-74.968386-151.640599l34.076539-52.818636s15.334443 3.407654 23.853577-23.853577c0 0 8.519135-20.445923 17.03827-1.703827l39.18802 61.33777c1.703827 11.926789 5.111481 20.445923 6.815308 27.261232 6.815308 18.742097 39.18802 83.487521 44.2995 119.267887 5.111481 35.780366-42.595674 32.372712-42.595673 32.372712-63.041597 8.519135 10.222962 42.595674 10.222961 42.595674 52.818636 1.703827 74.968386 18.742097 86.895175 13.630615 8.519135 8.519135 22.14975 18.742097 40.891847 10.222962 0 0 10.222962 1.703827 25.557404 3.407654v5.111481c0 98.821963 80.079867 178.90183 178.901831 178.90183S973.737105 943.920133 973.737105 845.09817c3.407654-102.229617-76.672213-182.309484-175.494177-182.309484z m-425.956738 95.414309c0 86.895175-69.856905 158.455907-158.455907 158.455907-86.895175 0-158.455907-69.856905-158.455907-158.455907 0-86.895175 69.856905-158.455907 158.455907-158.455907 27.261231 0 52.818636 6.815308 74.968386 18.742097 0 1.703827-1.703827 3.407654-3.407654 5.111481 0 0-27.261231-11.926789-23.853577-5.111481 0 0 13.630616 10.222962 15.334442 17.038269l-37.484193 68.153078c-6.815308-3.407654-15.334443-6.815308-25.557404-6.815307-28.965058 0-52.818636 23.853577-52.818636 52.818635 0 28.965058 23.853577 52.818636 52.818636 52.818636 18.742097 0 34.076539-8.519135 44.299501-23.853578 0 13.630616 10.222962 5.111481 10.222961 5.111481l11.926789-57.930116c3.407654-22.14975-10.222962-8.519135-10.222962-8.519135-1.703827 5.111481-3.407654 8.519135-6.815307 11.926789-1.703827-3.407654-3.407654-8.519135-6.815308-11.926789l54.522462-83.487521c39.18802 30.668885 61.33777 74.968386 61.337771 124.379368z m-143.121465 15.334443c15.334443-13.630616 15.334443-30.668885 15.334443-30.668886l8.519135-13.630615c3.407654 6.815308 6.815308 13.630616 6.815308 22.14975 0 23.853577-18.742097 44.299501-44.299501 44.299501-23.853577 0-44.299501-18.742097-44.299501-44.299501 0-23.853577 18.742097-44.299501 44.299501-44.299501 6.815308 0 13.630616 1.703827 20.445923 5.111481L224.053245 732.645591s-32.372712-1.703827-30.668886 18.742096c1.703827 1.703827 20.445923 35.780366 35.780366 22.149751z m504.332779-27.261232c-1.703827 0-3.407654 0-3.407654-1.703827-10.222962-3.407654-10.222962 3.407654-22.14975-13.630615 0-1.703827-1.703827-1.703827-1.703827-1.703827 3.407654-3.407654 8.519135-6.815308 11.926789-8.519135l15.334442 25.557404z m-10.222962 61.337771c13.630616-6.815308 23.853577-13.630616 28.965059-25.557405l11.926788 22.149751c-8.519135 6.815308-11.926789 18.742097-11.926788 30.668885v1.703827c-11.926789-3.407654-32.372712-8.519135-54.522463-13.630616 1.703827-8.519135 10.222962-8.519135 25.557404-15.334442z m37.484193 27.261231c0-8.519135 3.407654-17.03827 6.815308-23.853577l6.815308 13.630615s-11.926789 10.222962-10.222962 17.03827c0 0-1.703827 0-3.407654-1.703827V834.875208z m66.449252 11.926789s6.815308-35.780366-30.668886-42.595674l-5.11148-8.519135c3.407654 0 6.815308-1.703827 10.222961-1.703827 22.14975 0 40.891847 18.742097 40.891847 40.891847 0 22.14975-18.742097 40.891847-40.891847 40.891847-10.222962 0-18.742097-3.407654-27.261231-10.222962 18.742097 8.519135 49.410982 17.03827 52.818636-18.742096z m-34.076539-30.668886l-6.815308 5.111481-8.519135-18.742096c1.703827-1.703827 3.407654-1.703827 5.111481-3.407654l10.222962 17.038269z m-18.742097-22.14975l-18.742096-39.18802 22.14975 37.484193c-1.703827 0-1.703827 0-3.407654 1.703827z m-95.414309-149.936772l23.853577 46.003328c-3.407654 1.703827-6.815308 3.407654-8.519135 6.815308-3.407654-5.111481-3.407654-6.815308-3.407654-6.815308-3.407654-13.630616-8.519135-27.261231-13.630615-40.891847l1.703827-5.111481z m-143.121465-120.971714v13.630616l-15.334442-11.926789c3.407654-6.815308 5.111481-13.630616 5.111481-13.630615 20.445923-25.557404 10.222962 11.926789 10.222961 11.926788z m-102.229617-107.341098c3.407654-5.111481 5.111481-6.815308 5.111481-6.815308 13.630616-11.926789 5.111481-17.03827 10.222962-25.557404s32.372712-44.299501 32.372712-44.299501c5.111481-8.519135 8.519135-13.630616 8.519135-17.038269 0 27.261231 32.372712 13.630616 32.372712 13.630615 15.334443-15.334443 13.630616 3.407654 13.630615 3.407654-18.742097 13.630616-44.299501 37.484193-73.264559 124.379368l-5.111481 15.334442-23.853577-17.038269c0 1.703827 35.780366-35.780366 0-46.003328z m136.306156 378.249584l-28.965058-83.487521c-5.111481-28.965058-5.111481-52.818636-10.222961-88.599001-6.815308-40.891847-22.14975-73.264559-25.557405-78.37604l39.18802 27.261231c20.445923 46.003328 66.449251 88.599002 66.449251 88.599002 10.222962 8.519135 17.03827 17.03827 23.853578 23.853577l-64.745425 110.748752z m17.03827 15.334443L650.009983 698.569052c8.519135 11.926789 11.926789 20.445923 13.630616 25.557404-20.445923 23.853577-35.780366 54.522463-40.891847 86.895175-11.926789 0-25.557404-1.703827-35.780366-1.703827zM798.242928 988.219634c-76.672213 0-139.71381-59.633943-144.825291-134.60233 8.519135 1.703827 18.742097-3.407654 27.261232-10.222961 30.668885 3.407654 63.041597 8.519135 74.968386 11.926788 8.519135 17.03827 25.557404 28.965058 44.2995 28.965059 27.261231 0 49.410982-22.14975 49.410982-49.410982 0-27.261231-22.14975-49.410982-49.410982-49.410982-5.111481 0-10.222962 0-15.334442 1.703827l-47.707155-80.079867c18.742097-8.519135 37.484193-11.926789 59.633943-11.926788 80.079867 0 146.529118 64.745424 146.529119 146.529118 1.703827 80.079867-63.041597 146.529118-144.825292 146.529118z" fill="#d81e06" p-id="3391"></path></svg>